<svg xmlns="http://www.w3.org/2000/svg" width="20" height="20" viewBox="0 0 20 20">
  <path fill="#FFF" d="M18,13 L18,17 C18,17.276 17.889,17.525 17.707,17.707 C17.525,17.889 17.276,18 17,18 L3,18 C2.724,18 2.475,17.889 2.293,17.707 C2.111,17.525 2,17.276 2,17 L2,13 C2,12.448 1.552,12 1,12 C0.448,12 0,12.448 0,13 L0,17 C0,17.828 0.337,18.58 0.879,19.121 C1.421,19.662 2.172,20 3,20 L17,20 C17.828,20 18.58,19.663 19.121,19.121 C19.662,18.579 20,17.828 20,17 L20,13 C20,12.448 19.552,12 19,12 C18.448,12 18,12.448 18,13 Z M11,10.586 L11,1 C11,0.448 10.552,0 10,0 C9.448,0 9,0.448 9,1 L9,10.586 L5.707,7.293 C5.316,6.902 4.683,6.902 4.293,7.293 C3.903,7.684 3.902,8.317 4.293,8.707 L9.293,13.707 C9.385,13.799 9.495,13.873 9.617,13.924 C9.739,13.975 9.87,14 10,14 C10.256,14 10.512,13.902 10.707,13.707 L15.707,8.707 C16.098,8.316 16.098,7.683 15.707,7.293 C15.316,6.903 14.683,6.902 14.293,7.293 L11,10.586 Z"/>
</svg>
