<svg xmlns="http://www.w3.org/2000/svg" width="42" height="26" viewBox="0 0 42 26">
  <path fill="#FFF" d="M6,3 L21.5,14.046 L36,3 L6,3 Z M22.916,17.081 C22.134,17.64 20.866,17.64 20.084,17.081 L3,4.666 L3,21.362 C3,22.948 3.06,23 4.647,23 L37.458,23 C39.046,23 39.0011295,22.948 39.0011295,21.362 L38.997,5.329 L22.917,17.081 L22.916,17.081 Z M2.625,0 L39.375,0 C41.187,0 42,0.813 42,2.625 L42,23.375 C42,25.187 41.187,26 39.375,26 L2.625,26 C0.813,26 0,25.187 0,23.375 L0,2.625 C0,0.813 0.813,0 2.625,0 Z"/>
</svg>
