<svg xmlns="http://www.w3.org/2000/svg" width="34" height="44" viewBox="0 0 34 44">
  <path fill="#FFF" d="M6.47619048,38.6692456 L3.03571429,38.6692456 C1.36242857,38.6692456 0,37.3134052 0,35.6482108 L0,3.02103482 C0,1.35584043 1.36242857,0 3.03571429,0 L21.8571429,0 C22.4011429,0 23.3507143,0.164344294 25.3081429,1.59268956 C26.4568571,2.43132882 27.8022857,3.6010735 29.0918571,4.88440909 C30.3814286,6.16774468 31.5568571,7.50666731 32.3995714,8.64982689 C33.8348571,10.5977901 34,11.5427698 34,12.0841393 L34,35.6482108 C34,37.3134052 32.6375714,38.6692456 30.9642857,38.6692456 L27.755102,38.6692456 L27.755102,41.3786105 L27.7104861,41.3786105 L27.2935441,41.5790809 C27.0837453,41.6805785 23.679162,43.2727273 17.8053264,43.2727273 C14.798033,43.2727273 11.1443469,42.8561327 6.93881014,41.6068539 L6.4926557,41.4740486 L6.47619048,41.3776006 L6.47619048,38.6692456 Z M27.755102,36.2524178 L30.9642857,36.2524178 C31.2945714,36.2524178 31.5714286,35.9768994 31.5714286,35.6482108 L31.5714286,12.0841393 L23.0714286,12.0841393 C22.4011429,12.0841393 21.8571429,11.5427698 21.8571429,10.8757253 L21.8571429,2.41682785 L3.03571429,2.41682785 C2.70785714,2.41682785 2.42857143,2.69476306 2.42857143,3.02103482 L2.42857143,35.6482108 C2.42857143,35.9768994 2.70785714,36.2524178 3.03571429,36.2524178 L6.47619048,36.2524178 L6.47619048,35.2195751 C6.47619048,31.0298959 10.0613601,27.6208897 14.4681974,27.6208897 L19.764688,27.6208897 C24.1715253,27.6208897 27.7566949,31.0298959 27.755102,35.2195751 L27.755102,36.2524178 Z M27.3724286,6.59552321 L27.37,6.59552321 C26.2067143,5.43544584 25.1551429,4.52671857 24.2832857,3.85484043 L24.2832857,9.66731141 L30.1264286,9.66731141 C29.4512857,8.79967021 28.5381429,7.75560058 27.3724286,6.59552321 Z M17.1161579,26.7001934 C13.7954484,26.7001934 11.1020408,24.0209957 11.1020408,20.7159219 C11.1020408,17.4108482 13.7954484,14.7311412 17.1161579,14.7311412 C20.4368675,14.7311412 23.1292517,17.4103389 23.1292517,20.7154127 C23.1292517,24.0204865 20.4373791,26.7001934 17.1161579,26.7001934 Z"/>
</svg>
